<svg version="1.1" id="Layer_1" xmlns="http://www.w3.org/2000/svg" xmlns:xlink="http://www.w3.org/1999/xlink" x="0px" y="0px"
	 viewBox="0 0 83.7 175.6" style="enable-background:new 0 0 83.7 175.6;" xml:space="preserve">
<style type="text/css">
	.st0{fill:#14141F;}
</style>
<g>
	<path class="st0" d="M83.7,88.7H64.6l-4.9-11.4H24l-4.9,11.4H0L39,0h5.8L83.7,88.7z M30.2,62.7h23.1L41.9,33.3L30.2,62.7z"/>
</g>
<path class="st0" d="M65.8,122.1c0.2,2.6,0,5.1-0.6,7.4c-0.1,0.6-0.3,1.1-0.4,1.6c0,0.1-0.1,0.3-0.1,0.4l-0.3,0.9L58.6,149
	c-0.2,0.5-1,0.5-1.1,0l-1.9-5.4l-0.4-1.2c-0.6-1.8-3.2-1.7-3.7,0.1l-1,3.8l-7.9,28.8c-0.2,0.6-1,0.6-1.2,0l-7.9-28.8l-1-3.8
	c-0.5-1.8-3.1-1.9-3.7-0.1l-0.4,1.2l-1.9,5.4c-0.2,0.5-1,0.5-1.1,0l-5.8-16.8c-0.1-0.2-0.2-0.5-0.2-0.7c-0.1-0.3-0.2-0.6-0.3-0.9
	c-0.1-0.4-0.2-0.8-0.3-1.2c-0.4-1.8-0.6-3.6-0.6-5.5c0-13.7,11.5-24.7,25.4-23.9C55.2,100.8,64.9,110.3,65.8,122.1"/>
</svg>
